<svg xmlns="http://www.w3.org/2000/svg" viewBox="0 0 660.31 254.94"><defs><style>.cls-1{fill:#110323}</style></defs><rect width="660.31" height="254.94" fill="white" rx="25" ry="25"/><g id="Layer_3" data-name="Layer 3"><path class="cls-1" d="M126.47 64A64.53 64.53 0 1 0 191 128.48 64.53 64.53 0 0 0 126.47 64zm35.11 50.89a3.23 3.23 0 0 1-3.22 3.23h-6.67a3.23 3.23 0 0 0-3.22 3.22v14.32a3.23 3.23 0 0 0 3.22 3.22h6.63a3.24 3.24 0 0 1 3.23 3.22V156a3.24 3.24 0 0 1-3.23 3.22H94.57a3.23 3.23 0 0 1-3.22-3.22v-13.95a3.23 3.23 0 0 1 3.22-3.22h6.67a3.23 3.23 0 0 0 3.22-3.22v-14.32a3.23 3.23 0 0 0-3.22-3.22h-6.63a3.23 3.23 0 0 1-3.22-3.23v-14.35a3.23 3.23 0 0 1 3.22-3.22h63.75a3.23 3.23 0 0 1 3.22 3.22zM398.06 120.83c-4.05-1.47-8.23-2-10.6-2.89-2.09-.84-3.49-3.69-2.76-5.09a.56.56 0 0 1 0-.12 4.85 4.85 0 0 1 1.09-1.45h.05a1.3 1.3 0 0 1 .31-.21 1.46 1.46 0 0 1 .28-.13 13.33 13.33 0 0 1 3.88-.45c5.08 0 14 2.94 15.64 3.58s2.84 1.15 3.62 1.49a3.36 3.36 0 0 0 3.8-.26 3.77 3.77 0 0 0 1.36-3.62V96.47a3.57 3.57 0 0 0-.9-1.94 3.45 3.45 0 0 0-1.68-1.16c-3.87-1.29-18.43-3.17-23.68-3.17q-14.48 0-22.61 6.21a19.94 19.94 0 0 0-8.14 17.83 24.26 24.26 0 0 0 9.46 17.36c8.49 5.65 19.39 6.74 21.8 7.59 5.41 1.93 4 4.34 4 5.46 0 .69-.47 1.18-1.42 1.48a13 13 0 0 1-3.88.45 40.24 40.24 0 0 1-14.68-2.9c-2.59-1-4.69-1.74-6.33-2.38s-2.84-1.15-3.62-1.5a3.4 3.4 0 0 0-3.81.26 3.77 3.77 0 0 0-1.35 3.62l-.06 16a3.63 3.63 0 0 0 .9 2 3.42 3.42 0 0 0 1.68 1.15c3.88 1.3 9.86 2.22 14.47 3a94.52 94.52 0 0 0 14.79 1.1q14.46 0 22.61-6.2t8.14-17.83c-.01-16.41-22.36-22.07-22.36-22.07zM340.32 92.82h-20.8A2.79 2.79 0 0 0 317.2 94a4.24 4.24 0 0 0-.91 2.71v63.57a4.29 4.29 0 0 0 .91 2.72 2.81 2.81 0 0 0 2.32 1.16h20.8a2.73 2.73 0 0 0 2.2-1.16 4.34 4.34 0 0 0 .9-2.72V96.69a4.29 4.29 0 0 0-.9-2.71 2.7 2.7 0 0 0-2.2-1.16zM511.75 94.93a3.66 3.66 0 0 0-3.69-2.19h-23.77a3.73 3.73 0 0 0-1.48.46 4.67 4.67 0 0 0-1.36.83l-18.15 24.78V96.69a4 4 0 0 0-3.87-3.87h-22.36a3.93 3.93 0 0 0-2.79 1.18 3.66 3.66 0 0 0-1.22 2.71v63.65a3.66 3.66 0 0 0 1.22 2.71 3.93 3.93 0 0 0 2.79 1.16h22.35a4 4 0 0 0 3.87-3.87v-22.2l18.15 24.78a4.88 4.88 0 0 0 1.36.84 3.85 3.85 0 0 0 1.48.45h23.77a3.66 3.66 0 0 0 3.69-2.19 3.78 3.78 0 0 0-.84-4.27l-20.64-29.27 20.65-29.3a3.78 3.78 0 0 0 .84-4.27zM304.16 95a3.66 3.66 0 0 0-3.69-2.19H276.7a3.94 3.94 0 0 0-1.49.45 5 5 0 0 0-1.36.84l-18.14 24.78V96.69a3.95 3.95 0 0 0-3.88-3.87h-22.36a4 4 0 0 0-2.78 1.18 3.62 3.62 0 0 0-1.22 2.72V160.2a3.59 3.59 0 0 0 1.22 2.71 3.93 3.93 0 0 0 2.78 1.16h22.35a4 4 0 0 0 3.88-3.87v-22.14l18.14 24.78a5 5 0 0 0 1.36.84 3.81 3.81 0 0 0 1.49.46h23.77a3.65 3.65 0 0 0 3.68-2.2 3.77 3.77 0 0 0-.83-4.26l-20.58-29.2 20.59-29.2a3.8 3.8 0 0 0 .84-4.28zM598.37 128.54q-.17-17.61-11.23-27.93t-30-10.34q-18.74 0-29.84 10.34t-11.22 27.8q.17 17.61 11.23 27.93t29.84 10.34q18.86 0 30-10.34t11.22-27.8zm-41.21 14.75q-6.46 0-10.08-4.07c-2.3-2.59-3.47-6.17-3.57-10.68.08-4.58 1.26-8.2 3.58-10.81s5.77-4.07 10.08-4.07 7.79 1.36 10.2 4.07 3.48 6.17 3.58 10.68c-.08 4.58-1.26 8.2-3.59 10.81s-5.81 4.07-10.2 4.07z"/></g></svg>